{"asset":{"version":"2.0","generator":"Blockbench 5.0.4 glTF exporter"},"scenes":[{"nodes":[0,1],"name":"blockbench_export"}],"scene":0,"nodes":[{"name":"cuboid","mesh":0},{"translation":[0,0.011875,0],"name":"sphere","mesh":1}],"bufferViews":[{"buffer":0,"byteOffset":0,"byteLength":480,"target":34962,"byteStride":12},{"buffer":0,"byteOffset":480,"byteLength":480,"target":34962,"byteStride":12},{"buffer":0,"byteOffset":960,"byteLength":320,"target":34962,"byteStride":8},{"buffer":0,"byteOffset":1280,"byteLength":120,"target":34963},{"buffer":0,"byteOffset":1400,"byteLength":13248,"target":34962,"byteStride":12},{"buffer":0,"byteOffset":14648,"byteLength":13248,"target":34962,"byteStride":12},{"buffer":0,"byteOffset":27896,"byteLength":8832,"target":34962,"byteStride":8},{"buffer":0,"byteOffset":36728,"byteLength":3168,"target":34963}],"buffers":[{"byteLength":39896,"uri":"data:application/octet-stream;base64,"}],"accessors":[{"bufferView":0,"componentType":5126,"count":40,"max":[0.004999999888241291,0.008124999701976776,0.004999999888241291],"min":[-0.008124999701976776,0,-0.004999999888241291],"type":"VEC3"},{"bufferView":1,"componentType":5126,"count":40,"max":[1,0.9728062152862549,1],"min":[-0.9983063340187073,-1,-1],"type":"VEC3"},{"bufferView":2,"componentType":5126,"count":40,"max":[0.71875,0.609375],"min":[0,0],"type":"VEC2"},{"bufferView":3,"componentType":5123,"count":60,"max":[39],"min":[0],"type":"SCALAR"},{"bufferView":4,"componentType":5126,"count":1104,"max":[0.0031250000465661287,0.0031250000465661287,0.0031250000465661287],"min":[-0.0031250000465661287,-0.0031250000465661287,-0.0031250000465661287],"type":"VEC3"},{"bufferView":5,"componentType":5126,"count":1104,"max":[0.9914448857307434,0.9914448857307434,0.9914448857307434],"min":[-0.9914448857307434,-0.9914448857307434,-0.9914448857307434],"type":"VEC3"},{"bufferView":6,"componentType":5126,"count":1104,"max":[0.7280805110931396,0.71875],"min":[0.004689761437475681,0],"type":"VEC2"},{"bufferView":7,"componentType":5123,"count":1584,"max":[1103],"min":[0],"type":"SCALAR"}],"materials":[{"pbrMetallicRoughness":{"metallicFactor":0,"roughnessFactor":1,"baseColorTexture":{"index":0}},"alphaMode":"MASK","alphaCutoff":0.05,"doubleSided":true}],"textures":[{"sampler":0,"source":0,"name":"banvil.png"}],"samplers":[{"magFilter":9728,"minFilter":9728,"wrapS":33071,"wrapT":33071}],"images":[{"mimeType":"image/png","name":"banvil.png","uri":"banvil.png"}],"meshes":[{"primitives":[{"mode":4,"attributes":{"POSITION":0,"NORMAL":1,"TEXCOORD_0":2},"indices":3,"material":0}]},{"primitives":[{"mode":4,"attributes":{"POSITION":4,"NORMAL":5,"TEXCOORD_0":6},"indices":7,"material":0}]}]}