{"asset":{"version":"2.0","generator":"Blockbench 5.0.4 glTF exporter"},"scenes":[{"nodes":[2,11,13,15,17,19],"name":"blockbench_export"}],"scene":0,"nodes":[{"translation":[0,-0.008125,-0.00125],"name":"body","mesh":0},{"translation":[0,-0.008125,-0.00125],"name":"body","mesh":1},{"rotation":[-0.7071067811865475,0,0,0.7071067811865476],"translation":[0,0.008125,0.00125],"name":"body","children":[0,1]},{"rotation":[0.5555702330196022,0,0,0.8314696123025452],"translation":[0,0,0.0002588834764831849],"name":"head","mesh":2},{"rotation":[0.8314696123025452,0,0,0.5555702330196023],"translation":[0,0.00008456189064784292,0.0000547330132212509],"name":"head","mesh":3},{"translation":[0,-0.0003125,-0.0053125],"name":"nose","children":[3,4]},{"rotation":[0,0,-0.19509032201612825,0.9807852804032304],"name":"cube","mesh":4},{"translation":[-0.003125,0.001875,-0.0028125],"name":"left_ear","children":[6]},{"rotation":[0,0,0.19509032201612825,0.9807852804032304],"name":"cube","mesh":5},{"translation":[0.003125,0.001875,-0.0028125],"name":"right_ear","children":[8]},{"translation":[0,-0.0075,0.00375],"name":"head","mesh":6},{"translation":[0,0.006875,-0.00375],"name":"head","children":[5,7,9,10]},{"translation":[-0.001875,-0.00375,-0.004375],"name":"leg1","mesh":7},{"translation":[0.001875,0.00375,0.00375],"name":"leg1","children":[12]},{"translation":[0.001875,-0.00375,-0.004375],"name":"leg2","mesh":8},{"translation":[-0.001875,0.00375,0.00375],"name":"leg2","children":[14]},{"translation":[-0.001875,-0.00375,0.003125],"name":"leg3","mesh":9},{"translation":[0.001875,0.00375,-0.00375],"name":"leg3","children":[16]},{"translation":[0.001875,-0.00375,0.003125],"name":"leg4","mesh":10},{"translation":[-0.001875,0.00375,-0.00375],"name":"leg4","children":[18]}],"bufferViews":[{"buffer":0,"byteOffset":0,"byteLength":288,"target":34962,"byteStride":12},{"buffer":0,"byteOffset":288,"byteLength":288,"target":34962,"byteStride":12},{"buffer":0,"byteOffset":576,"byteLength":192,"target":34962,"byteStride":8},{"buffer":0,"byteOffset":768,"byteLength":72,"target":34963},{"buffer":0,"byteOffset":840,"byteLength":288,"target":34962,"byteStride":12},{"buffer":0,"byteOffset":1128,"byteLength":288,"target":34962,"byteStride":12},{"buffer":0,"byteOffset":1416,"byteLength":192,"target":34962,"byteStride":8},{"buffer":0,"byteOffset":1608,"byteLength":72,"target":34963},{"buffer":0,"byteOffset":1680,"byteLength":288,"target":34962,"byteStride":12},{"buffer":0,"byteOffset":1968,"byteLength":288,"target":34962,"byteStride":12},{"buffer":0,"byteOffset":2256,"byteLength":192,"target":34962,"byteStride":8},{"buffer":0,"byteOffset":2448,"byteLength":72,"target":34963},{"buffer":0,"byteOffset":2520,"byteLength":288,"target":34962,"byteStride":12},{"buffer":0,"byteOffset":2808,"byteLength":288,"target":34962,"byteStride":12},{"buffer":0,"byteOffset":3096,"byteLength":192,"target":34962,"byteStride":8},{"buffer":0,"byteOffset":3288,"byteLength":72,"target":34963},{"buffer":0,"byteOffset":3360,"byteLength":288,"target":34962,"byteStride":12},{"buffer":0,"byteOffset":3648,"byteLength":288,"target":34962,"byteStride":12},{"buffer":0,"byteOffset":3936,"byteLength":192,"target":34962,"byteStride":8},{"buffer":0,"byteOffset":4128,"byteLength":72,"target":34963},{"buffer":0,"byteOffset":4200,"byteLength":288,"target":34962,"byteStride":12},{"buffer":0,"byteOffset":4488,"byteLength":288,"target":34962,"byteStride":12},{"buffer":0,"byteOffset":4776,"byteLength":192,"target":34962,"byteStride":8},{"buffer":0,"byteOffset":4968,"byteLength":72,"target":34963},{"buffer":0,"byteOffset":5040,"byteLength":288,"target":34962,"byteStride":12},{"buffer":0,"byteOffset":5328,"byteLength":288,"target":34962,"byteStride":12},{"buffer":0,"byteOffset":5616,"byteLength":192,"target":34962,"byteStride":8},{"buffer":0,"byteOffset":5808,"byteLength":72,"target":34963},{"buffer":0,"byteOffset":5880,"byteLength":288,"target":34962,"byteStride":12},{"buffer":0,"byteOffset":6168,"byteLength":288,"target":34962,"byteStride":12},{"buffer":0,"byteOffset":6456,"byteLength":192,"target":34962,"byteStride":8},{"buffer":0,"byteOffset":6648,"byteLength":72,"target":34963},{"buffer":0,"byteOffset":6720,"byteLength":288,"target":34962,"byteStride":12},{"buffer":0,"byteOffset":7008,"byteLength":288,"target":34962,"byteStride":12},{"buffer":0,"byteOffset":7296,"byteLength":192,"target":34962,"byteStride":8},{"buffer":0,"byteOffset":7488,"byteLength":72,"target":34963},{"buffer":0,"byteOffset":7560,"byteLength":288,"target":34962,"byteStride":12},{"buffer":0,"byteOffset":7848,"byteLength":288,"target":34962,"byteStride":12},{"buffer":0,"byteOffset":8136,"byteLength":192,"target":34962,"byteStride":8},{"buffer":0,"byteOffset":8328,"byteLength":72,"target":34963},{"buffer":0,"byteOffset":8400,"byteLength":288,"target":34962,"byteStride":12},{"buffer":0,"byteOffset":8688,"byteLength":288,"target":34962,"byteStride":12},{"buffer":0,"byteOffset":8976,"byteLength":192,"target":34962,"byteStride":8},{"buffer":0,"byteOffset":9168,"byteLength":72,"target":34963},{"buffer":0,"byteOffset":9240,"byteLength":188},{"buffer":0,"byteOffset":9428,"byteLength":752},{"buffer":0,"byteOffset":10180,"byteLength":188},{"buffer":0,"byteOffset":10368,"byteLength":752},{"buffer":0,"byteOffset":11120,"byteLength":252},{"buffer":0,"byteOffset":11372,"byteLength":756}],"buffers":[{"byteLength":12128,"uri":"data:application/octet-stream;base64,"}],"accessors":[{"bufferView":0,"componentType":5126,"count":24,"max":[6.250000410545908e-7,0.0043750000186264515,0.0031250000465661287],"min":[0,-0.0031250000465661287,-0.0043750000186264515],"type":"VEC3"},{"bufferView":1,"componentType":5126,"count":24,"max":[1,1,1],"min":[-1,-1,-1],"type":"VEC3"},{"bufferView":2,"componentType":5126,"count":24,"max":[0.4688720703125,0.3436279296875],"min":[0.2813720703125,0.1563720703125],"type":"VEC2"},{"bufferView":3,"componentType":5123,"count":36,"max":[23],"min":[0],"type":"SCALAR"},{"bufferView":4,"componentType":5126,"count":24,"max":[0.0031250000465661287,0.014375000260770321,0.0018749999580904841],"min":[-0.0031250000465661287,0.0043750000186264515,-0.0037499999161809683],"type":"VEC3"},{"bufferView":5,"componentType":5126,"count":24,"max":[1,1,1],"min":[-1,-1,-1],"type":"VEC3"},{"bufferView":6,"componentType":5126,"count":24,"max":[0.2967529296875,0.1951904296875],"min":[0.0001220703125,0.0001220703125],"type":"VEC2"},{"bufferView":7,"componentType":5123,"count":36,"max":[23],"min":[0],"type":"SCALAR"},{"bufferView":8,"componentType":5126,"count":24,"max":[0.0012562499614432454,0.0007875000010244548,0.0007875000010244548],"min":[-0.0012562499614432454,-0.0010999999940395355,-0.0010999999940395355],"type":"VEC3"},{"bufferView":9,"componentType":5126,"count":24,"max":[1,1,1],"min":[-1,-1,-1],"type":"VEC3"},{"bufferView":10,"componentType":5126,"count":24,"max":[0.5233154296875,0.0467529296875],"min":[0.4141845703125,0.0001220703125],"type":"VEC2"},{"bufferView":11,"componentType":5123,"count":36,"max":[23],"min":[0],"type":"SCALAR"},{"bufferView":12,"componentType":5126,"count":24,"max":[0.0012499999720603228,0.0009374999790452421,0.0013281250139698386],"min":[-0.0012499999720603228,0,-0.0005468750023283064],"type":"VEC3"},{"bufferView":13,"componentType":5126,"count":24,"max":[1,1,1],"min":[-1,-1,-1],"type":"VEC3"},{"bufferView":14,"componentType":5126,"count":24,"max":[0.4842529296875,0.3748779296875],"min":[0.3751220703125,0.3438720703125],"type":"VEC2"},{"bufferView":15,"componentType":5123,"count":36,"max":[23],"min":[0],"type":"SCALAR"},{"bufferView":16,"componentType":5126,"count":24,"max":[0.00000624999984211172,0.00000624999984211172,0.001568750012665987],"min":[-0.000631249975413084,-0.003131250152364373,-0.001568750012665987],"type":"VEC3"},{"bufferView":17,"componentType":5126,"count":24,"max":[1,1,1],"min":[-1,-1,-1],"type":"VEC3"},{"bufferView":18,"componentType":5126,"count":24,"max":[0.2186279296875,0.4608154296875],"min":[0.1251220703125,0.3829345703125],"type":"VEC2"},{"bufferView":19,"componentType":5123,"count":36,"max":[23],"min":[0],"type":"SCALAR"},{"bufferView":20,"componentType":5126,"count":24,"max":[0.000631249975413084,0.00000624999984211172,0.001568750012665987],"min":[-0.00000624999984211172,-0.003131250152364373,-0.001568750012665987],"type":"VEC3"},{"bufferView":21,"componentType":5126,"count":24,"max":[1,1,1],"min":[-1,-1,-1],"type":"VEC3"},{"bufferView":22,"componentType":5126,"count":24,"max":[0.4608154296875,0.4530029296875],"min":[0.3673095703125,0.3751220703125],"type":"VEC2"},{"bufferView":23,"componentType":5123,"count":36,"max":[23],"min":[0],"type":"SCALAR"},{"bufferView":24,"componentType":5126,"count":24,"max":[0.003131250152364373,0.010006249882280827,-0.003743749810382724],"min":[-0.003131250152364373,0.005618749652057886,-0.008756250143051147],"type":"VEC3"},{"bufferView":25,"componentType":5126,"count":24,"max":[1,1,1],"min":[-1,-1,-1],"type":"VEC3"},{"bufferView":26,"componentType":5126,"count":24,"max":[0.5155029296875,0.2498779296875],"min":[0.2344970703125,0.1329345703125],"type":"VEC2"},{"bufferView":27,"componentType":5123,"count":36,"max":[23],"min":[0],"type":"SCALAR"},{"bufferView":28,"componentType":5126,"count":24,"max":[0.0031250000465661287,0.0031250000465661287,0.005625000223517418],"min":[0.0006249999860301614,0,0.0031250000465661287],"type":"VEC3"},{"bufferView":29,"componentType":5126,"count":24,"max":[1,1,1],"min":[-1,-1,-1],"type":"VEC3"},{"bufferView":30,"componentType":5126,"count":24,"max":[0.1248779296875,0.4530029296875],"min":[0.0001220703125,0.3829345703125],"type":"VEC2"},{"bufferView":31,"componentType":5123,"count":36,"max":[23],"min":[0],"type":"SCALAR"},{"bufferView":32,"componentType":5126,"count":24,"max":[-0.0006249999860301614,0.0031250000465661287,0.005625000223517418],"min":[-0.0031250000465661287,0,0.0031250000465661287],"type":"VEC3"},{"bufferView":33,"componentType":5126,"count":24,"max":[1,1,1],"min":[-1,-1,-1],"type":"VEC3"},{"bufferView":34,"componentType":5126,"count":24,"max":[0.1248779296875,0.4530029296875],"min":[0.0001220703125,0.3829345703125],"type":"VEC2"},{"bufferView":35,"componentType":5123,"count":36,"max":[23],"min":[0],"type":"SCALAR"},{"bufferView":36,"componentType":5126,"count":24,"max":[0.0031250000465661287,0.0031250000465661287,-0.0018749999580904841],"min":[0.0006249999860301614,0,-0.0043750000186264515],"type":"VEC3"},{"bufferView":37,"componentType":5126,"count":24,"max":[1,1,1],"min":[-1,-1,-1],"type":"VEC3"},{"bufferView":38,"componentType":5126,"count":24,"max":[0.1248779296875,0.4530029296875],"min":[0.0001220703125,0.3829345703125],"type":"VEC2"},{"bufferView":39,"componentType":5123,"count":36,"max":[23],"min":[0],"type":"SCALAR"},{"bufferView":40,"componentType":5126,"count":24,"max":[-0.0006249999860301614,0.0031250000465661287,-0.0018749999580904841],"min":[-0.0031250000465661287,0,-0.0043750000186264515],"type":"VEC3"},{"bufferView":41,"componentType":5126,"count":24,"max":[1,1,1],"min":[-1,-1,-1],"type":"VEC3"},{"bufferView":42,"componentType":5126,"count":24,"max":[0.1248779296875,0.4530029296875],"min":[0.0001220703125,0.3829345703125],"type":"VEC2"},{"bufferView":43,"componentType":5123,"count":36,"max":[23],"min":[0],"type":"SCALAR"},{"bufferView":44,"componentType":5126,"count":47,"max":[2.625],"min":[0],"type":"SCALAR"},{"bufferView":45,"componentType":5126,"count":47,"max":[0,0,0.10221438854932785,1],"min":[0,0,-0.19509032368659973,0.9807852506637573],"type":"VEC4"},{"bufferView":46,"componentType":5126,"count":47,"max":[2.625],"min":[0],"type":"SCALAR"},{"bufferView":47,"componentType":5126,"count":47,"max":[0,0,0.19509032368659973,1],"min":[0,0,-0.0999252051115036,0.9807852506637573],"type":"VEC4"},{"bufferView":48,"componentType":5126,"count":63,"max":[3.9166667461395264],"min":[0],"type":"SCALAR"},{"bufferView":49,"componentType":5126,"count":63,"max":[1,1.25,1.25],"min":[1,0.9687552452087402,0.9687552452087402],"type":"VEC3"}],"materials":[{"pbrMetallicRoughness":{"metallicFactor":0,"roughnessFactor":1,"baseColorTexture":{"index":0}},"alphaMode":"MASK","alphaCutoff":0.05,"doubleSided":true}],"textures":[{"sampler":0,"source":0,"name":"pig.png"}],"samplers":[{"magFilter":9728,"minFilter":9728,"wrapS":33071,"wrapT":33071}],"images":[{"mimeType":"image/png","name":"pig.png","uri":"pig.png"}],"meshes":[{"primitives":[{"mode":4,"attributes":{"POSITION":0,"NORMAL":1,"TEXCOORD_0":2},"indices":3,"material":0}]},{"primitives":[{"mode":4,"attributes":{"POSITION":4,"NORMAL":5,"TEXCOORD_0":6},"indices":7,"material":0}]},{"primitives":[{"mode":4,"attributes":{"POSITION":8,"NORMAL":9,"TEXCOORD_0":10},"indices":11,"material":0}]},{"primitives":[{"mode":4,"attributes":{"POSITION":12,"NORMAL":13,"TEXCOORD_0":14},"indices":15,"material":0}]},{"primitives":[{"mode":4,"attributes":{"POSITION":16,"NORMAL":17,"TEXCOORD_0":18},"indices":19,"material":0}]},{"primitives":[{"mode":4,"attributes":{"POSITION":20,"NORMAL":21,"TEXCOORD_0":22},"indices":23,"material":0}]},{"primitives":[{"mode":4,"attributes":{"POSITION":24,"NORMAL":25,"TEXCOORD_0":26},"indices":27,"material":0}]},{"primitives":[{"mode":4,"attributes":{"POSITION":28,"NORMAL":29,"TEXCOORD_0":30},"indices":31,"material":0}]},{"primitives":[{"mode":4,"attributes":{"POSITION":32,"NORMAL":33,"TEXCOORD_0":34},"indices":35,"material":0}]},{"primitives":[{"mode":4,"attributes":{"POSITION":36,"NORMAL":37,"TEXCOORD_0":38},"indices":39,"material":0}]},{"primitives":[{"mode":4,"attributes":{"POSITION":40,"NORMAL":41,"TEXCOORD_0":42},"indices":43,"material":0}]}],"animations":[{"name":"animation.model.idle","samplers":[{"input":44,"output":45,"interpolation":"LINEAR"},{"input":46,"output":47,"interpolation":"LINEAR"},{"input":48,"output":49,"interpolation":"LINEAR"}],"channels":[{"sampler":0,"target":{"node":7,"path":"rotation"}},{"sampler":1,"target":{"node":9,"path":"rotation"}},{"sampler":2,"target":{"node":5,"path":"scale"}}]}]}